<?xml version="1.0" standalone="no"?><!DOCTYPE svg PUBLIC "-//W3C//DTD SVG 1.1//EN" "http://www.w3.org/Graphics/SVG/1.1/DTD/svg11.dtd"><svg t="1616821194683" class="icon" viewBox="0 0 1024 1024" version="1.1" xmlns="http://www.w3.org/2000/svg" p-id="1700" xmlns:xlink="http://www.w3.org/1999/xlink" width="32" height="32"><defs><style type="text/css"></style></defs><path d="M833.39946667 423.28746667a185.00266667 185.00266667 0 0 0-205.55093334-134.07573333A226.304 226.304 0 0 0 463.0528 217.6c-93.52533333 0-176.5376 58.29973333-209.92 143.01866667A210.80746667 210.80746667 0 0 0 34.13333333 571.01653334c0 116.05333333 94.48106667 210.5344 210.5344 210.5344h281.87306667a41.09653333 41.09653333 0 0 0 0-82.1248H244.66773333a128.54613333 128.54613333 0 0 1-128.34133333-128.4096 128.54613333 128.54613333 0 0 1 157.01333333-125.20106667l40.82346667 9.35253333 8.46506667-41.09653333a143.7696 143.7696 0 0 1 140.42453333-114.34666667c45.73866667 0 89.15626667 22.18666667 116.05333333 59.32373334l17.47626667 24.02986666 28.2624-9.0112a101.5808 101.5808 0 0 1 132.36906667 88.95146667l2.79893333 35.97653333 36.0448 1.8432a117.62346667 117.62346667 0 0 1 111.68426667 117.62346667 117.89653333 117.89653333 0 0 1-128.88746667 117.21386667l-4.36906667-0.54613334a115.3024 115.3024 0 0 1-6.48533333-1.024l-5.12-1.09226666a128.88746667 128.88746667 0 0 1-15.83786667-4.98346667 133.46133333 133.46133333 0 0 1-10.4448-4.7104l-3.75466666-1.91146667a119.73973333 119.73973333 0 0 1-6.82666667-4.16426666l-2.2528-1.36533334a118.23786667 118.23786667 0 0 1-47.78666667-67.65226666h69.4272l-113.73226666-162.47466667-113.73226667 162.47466667h74.41066667c7.23626667 48.46933333 31.88053333 91.27253333 67.44746666 121.78773333l2.18453334 2.048 2.18453333 1.6384a182.39466667 182.39466667 0 0 0 9.216 7.03146667l4.02773333 2.8672c3.75466667 2.52586667 7.5776 4.98346667 11.53706667 7.30453333l3.072 1.77493333c4.36906667 2.4576 8.73813333 4.77866667 13.24373333 6.82666667l1.57013334 0.68266667c15.01866667 6.9632 31.06133333 12.01493333 47.78666666 15.01866666l1.36533334 0.2048c5.12 0.95573333 10.4448 1.6384 15.7696 2.11626667l2.048 0.13653333a203.22986667 203.22986667 0 0 0 46.55786666-1.57013333A200.22613333 200.22613333 0 0 0 989.86666667 618.46186667a199.81653333 199.81653333 0 0 0-156.4672-195.24266667" p-id="1701" fill="#fa8334"></path></svg>