<?xml version="1.0" standalone="no"?><!DOCTYPE svg PUBLIC "-//W3C//DTD SVG 1.1//EN" "http://www.w3.org/Graphics/SVG/1.1/DTD/svg11.dtd"><svg t="1567822446097" class="icon" viewBox="0 0 1024 1024" version="1.1" xmlns="http://www.w3.org/2000/svg" p-id="1845" xmlns:xlink="http://www.w3.org/1999/xlink" width="200" height="200"><defs><style type="text/css"></style></defs><path d="M167.232 519.192v116.504s84.536 103.536 154.224 130.712h11.448s120.376-67.952 138.504-123.6c-0.656-19.424-8.416-95.792-8.416-95.792l-295.76-27.824z" fill="#F0D2BA" p-id="1846"></path><path d="M146.296 468.072s28.48 132.896 127.712 177.768c14.664 6.032 59.544 24.16 103.552 0 6.024-2.584 72.464-58.68 94.04-93.2 10.36-15.528 37.992-198.464 37.992-198.464l-49.184-120.8-155.32 33.656-171.736 98.36 12.944 102.68z" fill="#F0E0C9" p-id="1847"></path><path d="M599.32 607.112l-11.208 141.08 48.336 86.296h145.816l63.856-63-54.368-148.216-34.296-59.52z" fill="#F0D2BA" p-id="1848"></path><path d="M526.416 486.184s40.768 139.792 113.896 150.8c9.064 0.64 51.128 15.536 81.544-10.36 4.528-3.232 113.904-77.648 115.192-174.736-3.232-34.952-36.24-201.92-36.24-201.92l-70.52 13.584-107.448 43.36-73.784 73.136-22.64 106.136z" fill="#F0E0C9" p-id="1849"></path><path d="M895.944 699.12S1016 758.648 1016 819.168c0 60.504-5.504 184.768-5.504 184.768s-5.496 20.064-54.528 20.064H595.464l-25.696-200.64s124.256 10.376 194.8 5.84c9.712-1.296 116.504-64.712 131.376-130.08z" fill="#70C09D" p-id="1850"></path><path d="M774.608 273.272s-33.976 79.6-112.288 100.312c-21.36 0-77.016 13.592-89.96 31.064-8.408-17.48-18.768-176.68-18.768-176.68l-31.064-96.432s63.432-64.064 109.368-67.304c45.96-3.232 109.376-13.592 135.912 20.064 9.056 0 121.016 14.24 146.904 202.568 2.576 25.888 13.368 204.512 9.928 244.2 6.048 24.168 36.24 201.064-20.712 285.632-7.768 23.288-19 40.544 5.176 62.976 3.464 18.992 3.432 69.896-67.312 87.168 1.744-13.8-1.72-73.352-13.784-87.168-12.08-13.8 10.344-75.072-15.536-101.824 0 0-45.752 19.84-56.104-52.632v-121.68s77.664-86.28 70.76-182.064c-6.88-52.632-23.96-152.304-52.52-148.2z" fill="#8F5632" p-id="1851"></path><path d="M540.648 512.712a69.128 69.128 0 0 1 0-2.576" fill="#61341C" p-id="1852"></path><path d="M486.648 606.272c3.52-0.072 8.536 5.936 15.816 29.432 4.528 21.352 17.472 73.76 88.664 101.584 8.416-1.28 25.88-84.768 11.648-122.952-7.624-11.432-61.328-57.112-62.136-101.624" fill="#8F5632" p-id="1853"></path><path d="M540.648 510.136c-0.648-8.408 34.944-69.896 34.944-131.376 0-36.24 22.656-198.68-44-264.688-10.36-11.648-22-36.888-68.608-52.424-14.232-12.296-42.712-60.184-183.8-42.064-81.536 24.584-186.376 40.768-209.68 217.44-1.296 24.6-11 165.672 5.176 209.032 12.936 29.776 84.128 179.912 104.192 192.872V564.48s-34.304-104.84-23.296-146.256c3.88-10.352 44.008-84.776 158.56-55.656 28.472 1.944 71.832 0 89.312-40.12 5.824-10.352 17.472-35.592 20.064-51.776 8.416 5.824 33 3.232 29.768 74.424 7.12 11.656 11 15.536 35.592 34.952 0 14.88 12.304 87.368-27.184 184.44 1.296 15.536 3.888 74.448 3.888 74.448s3.88-0.656 16.176-28.48c1.216-1.952 2.8-4.168 4.896-4.184" fill="#61341C" p-id="1854"></path><path d="M631.8 992.152A31.84 31.84 0 0 1 599.952 1024H50.52a31.84 31.84 0 0 1-31.848-31.848V663.688a31.848 31.848 0 0 1 31.848-31.848h549.424a31.84 31.84 0 0 1 31.848 31.848v328.464z" fill="#ED7718" p-id="1855" data-spm-anchor-id="a313x.7781069.0.i5" class="selected"></path><path d="M71.904 912.36h56.304v-56.288h56.296v-56.304H240.8v-56.288H128.2v56.288H71.904v-56.288h56.304v-56.296H240.8v56.296h56.296v56.288H240.8v56.304h-56.296v56.288h112.592v56.296H71.904v-56.296zM522.264 912.36h56.296v56.296h-56.296v-56.296h-56.296v-56.288H409.68v112.584h-56.304V687.176h56.304V799.76h56.296v-56.288h56.296v-56.296h56.296v56.296h-56.296v56.288h-56.296v56.304h56.296v56.296z" fill="#FFFFFF" p-id="1856"></path></svg>