<?xml version="1.0" standalone="no"?><!DOCTYPE svg PUBLIC "-//W3C//DTD SVG 1.1//EN" "http://www.w3.org/Graphics/SVG/1.1/DTD/svg11.dtd"><svg t="1573645348017" class="icon" viewBox="0 0 1024 1024" version="1.1" xmlns="http://www.w3.org/2000/svg" p-id="2168" xmlns:xlink="http://www.w3.org/1999/xlink" width="1024" height="1024"><defs><style type="text/css"></style></defs><path d="M512 992c-247.424 0-448-92.736-448-297.344C64 490.016 264.576 224 512 224s448 266.016 448 470.656C960 899.264 759.424 992 512 992z m-125.056-310.528c-23.296 0-34.944 7.712-34.944 23.136 0 15.104 11.648 22.656 34.944 22.656h87.424v19.712c0 33.28 11.2 49.952 33.728 49.952 22.144 0 33.216-16.64 33.216-49.952v-19.712h87.648c23.136 0 34.72-7.552 34.72-22.656 0-15.424-11.584-23.136-34.72-23.136h-87.648v-35.456h87.648c23.136 0 34.72-7.68 34.72-23.136 0-15.104-11.584-22.656-34.72-22.656h-63.264l54.08-92.64c4.448-7.232 7.68-13.216 9.728-17.984 2.048-4.768 3.072-10.016 3.072-15.744a24.544 24.544 0 0 0-7.744-18.336 27.648 27.648 0 0 0-20.064-7.52 30.496 30.496 0 0 0-14.912 3.456c-4.16 2.304-7.68 5.216-10.464 8.736-2.784 3.52-5.664 7.776-8.608 12.8-2.944 4.992-5.76 9.792-8.352 14.4l-54.336 93.12-63.936-97.216c-6.88-11.328-12.928-19.52-18.08-24.64-5.184-5.088-11.968-7.616-20.32-7.616a27.136 27.136 0 0 0-20.064 7.744c-5.184 5.184-7.776 12.032-7.776 20.576 0 4.736 0.928 9.088 2.72 13.024 1.792 3.968 5.664 10.528 11.584 19.712l58.016 88.128h-63.296c-23.296 0-34.944 7.552-34.944 22.656 0 15.424 11.648 23.136 34.944 23.136h87.424v35.456h-87.424z" fill="#50a1ff" p-id="2169" data-spm-anchor-id="a313x.7781069.0.i0" class=""></path><path d="M720 256c30.176-28.608 48-92.032 48-117.952C768 72.224 653.376 32 512 32c-45.824 0-88.832 4.224-126.016 12.16C308.384 60.8 256 93.6 256 138.08c0 25.92 17.824 89.344 48 117.952C352 212.064 437.664 192 512 192c74.336 0 160 20.064 208 64z" fill="#b0d5ff" p-id="2170" data-spm-anchor-id="a313x.7781069.0.i2" class=""></path></svg>