<?xml version="1.0" standalone="no"?><!DOCTYPE svg PUBLIC "-//W3C//DTD SVG 1.1//EN" "http://www.w3.org/Graphics/SVG/1.1/DTD/svg11.dtd"><svg t="1669102961560" class="icon" viewBox="0 0 1024 1024" version="1.1" xmlns="http://www.w3.org/2000/svg" p-id="2685" xmlns:xlink="http://www.w3.org/1999/xlink" width="200" height="200"><path d="M742 626.5c-30.6 48.4-72.4 88.9-121.9 117.8l199 199L939 823.5l-197-197z" fill="#C0C3C6" p-id="2686"></path><path d="M441.1 809.8C235.6 809.8 68.3 642.6 68.3 437c0-205.6 167.2-372.8 372.8-372.8 205.6 0 372.8 167.2 372.8 372.8 0 205.6-167.2 372.8-372.8 372.8z m0-711.8c-186.9 0-339 152.1-339 339s152.1 339 339 339 339-152.1 339-339-152-339-339-339z" fill="#2E3742" p-id="2687"></path><path d="M819.1 960.2c-4.3 0-8.7-1.7-12-5l-199-199c-3.7-3.7-5.5-8.9-4.8-14.1 0.7-5.2 3.7-9.8 8.3-12.4 47-27.4 87.1-66.2 116.1-112.2 2.7-4.3 7.3-7.2 12.4-7.8 5-0.5 10.2 1.2 13.8 4.9l197 197c3.2 3.2 5 7.5 5 12s-1.8 8.8-5 12L831.1 955.3c-3.3 3.3-7.7 4.9-12 4.9z m-172-212.8l172 172 95.9-95.9L744.6 653c-26.5 37.1-59.7 69.2-97.5 94.4zM626.2 267.1c-4.7 0-9.4-1.9-12.7-5.8C505 137.4 348 213.8 346.4 214.6c-8.3 4.1-18.5 0.8-22.7-7.6-4.2-8.4-0.8-18.5 7.6-22.7 1.8-0.9 182.2-88.8 307.7 54.7 6.1 7 5.4 17.7-1.6 23.9-3.3 2.8-7.2 4.2-11.2 4.2z" fill="#2E3742" p-id="2688"></path></svg>